PathFileType	4	(X/Y/Z)	D:\TRACE\v60_Jaco2_6-2-23\JustArmDRS_Motion3_3-platform.trc
DataRate	CameraRate	NumFrames	NumMarkers	Units	OrigDataRate	OrigDataStartFrame	OrigNumFrames
100.00	100.00	      60	5	mm	100.00	1	      7000
Frame#	Time	Left_Front			Right_Front			Left_Aft			Right_Aft			Post			
		X1	Y1	Z1	X2	Y2	Z2	X3	Y3	Z3	X4	Y4	Z4	X5	Y5	Z5	

1	0.000	-814.69128	128.38493	-611.88458	755.79736	125.61130	-588.82159	-746.01288	-73.71088	504.18204	668.64716	-92.40765	608.29388	-21.59389	1462.25183	-684.18646	
2	0.010	-814.63507	128.30962	-611.91003	755.80560	125.59689	-588.82086	-746.01184	-73.79320	504.17920	668.71851	-92.35513	608.29633	-21.65244	1462.24841	-684.19385	
3	0.020	-814.64862	128.35094	-611.91626	755.81726	125.61948	-588.81775	-746.01172	-73.78580	504.23282	668.67834	-92.42982	608.26678	-21.70431	1462.24854	-684.19989	
4	0.030	-814.69006	128.37114	-611.87616	755.81274	125.61510	-588.80133	-746.01740	-73.73543	504.19748	668.65247	-92.39874	608.31567	-21.59173	1462.27295	-684.20880	
5	0.040	-814.46436	128.13329	-611.43835	755.79083	125.59661	-588.80225	-746.01648	-73.72453	504.14294	668.66510	-92.39363	608.27368	-21.61762	1462.25623	-684.22815	
6	0.050	-814.67865	128.37782	-611.92230	755.78845	125.62265	-588.80566	-746.02533	-73.73144	504.16812	668.68481	-92.39371	608.27600	-21.61847	1462.26685	-684.22003	
7	0.060	-814.70569	128.36742	-611.88916	755.79095	125.60864	-588.81171	-746.04486	-73.71676	504.20526	668.65424	-92.41795	608.28778	-21.57446	1462.25085	-684.24933	
8	0.070	-814.38000	128.02242	-611.40308	755.80847	125.61093	-588.80908	-746.00397	-73.74855	504.22073	668.89288	-92.46629	608.32196	-21.63932	1462.25696	-684.23486	
9	0.080	-814.66113	128.33417	-611.93243	755.80176	125.61113	-588.80774	-746.01465	-73.79292	504.21811	668.73096	-92.36435	608.27893	-21.61723	1462.25195	-684.21777	
10	0.090	-814.65228	128.33189	-611.93359	755.77734	125.61583	-588.83649	-746.02777	-73.75876	504.15878	668.76050	-92.35237	608.29639	-21.54574	1462.24976	-684.18005	
11	0.100	-814.66241	128.34355	-611.86023	755.81708	125.62935	-588.80634	-746.02893	-73.71397	504.17783	668.65472	-92.41839	608.27173	-21.55076	1462.25891	-684.17944	
12	0.110	-814.67249	128.37154	-611.92291	755.77545	125.61763	-588.82434	-746.04199	-73.68020	504.17673	668.66614	-92.37386	608.30060	-21.61484	1462.25085	-684.15759	
13	0.120	-814.66986	128.34499	-611.89600	755.79492	125.61520	-588.82635	-746.04486	-73.72539	504.16562	668.66858	-92.34583	608.33014	-21.62418	1462.27173	-684.19257	
14	0.130	-814.69110	128.37613	-611.87103	755.79285	125.60889	-588.82288	-746.04285	-73.74348	504.17545	668.76874	-92.30919	608.29852	-21.61634	1462.26013	-684.19379	
15	0.140	-814.71033	128.38187	-611.87585	755.82361	125.60895	-588.81818	-746.01678	-73.70199	504.18643	668.67126	-92.38860	608.29761	-21.59667	1462.26221	-684.18854	
16	0.150	-814.40112	128.11067	-611.36981	755.83105	125.62660	-588.82068	-746.01630	-73.71837	504.16666	668.70374	-92.36138	608.30029	-21.60496	1462.25732	-684.24689	
17	0.160	-814.68005	128.36568	-611.88379	755.81720	125.62734	-588.79199	-746.01270	-73.74184	504.16824	668.76190	-92.30810	608.31964	-21.59999	1462.27185	-684.26288	
18	0.170	-814.64819	128.34106	-611.90979	755.81927	125.59290	-588.79303	-745.99896	-73.74377	504.19177	668.72040	-92.35484	608.31396	-21.65617	1462.25354	-684.23907	
19	0.180	-814.66125	128.34703	-611.89532	755.81195	125.58566	-588.79095	-745.99512	-73.78664	504.18237	668.87170	-92.39638	608.39471	-21.64310	1462.21643	-684.22186	
20	0.190	-814.67493	128.34117	-611.89288	755.79645	125.59467	-588.79913	-746.03436	-73.71894	504.17654	668.65784	-92.38474	608.30444	-21.58985	1462.24597	-684.17834	
21	0.200	-814.70001	128.40231	-611.90973	755.80273	125.61536	-588.83978	-746.02380	-73.72339	504.17963	668.65784	-92.37867	608.31091	-21.61379	1462.28528	-684.16449	
22	0.210	-814.70154	128.36769	-611.90851	755.81036	125.61616	-588.81281	-746.02362	-73.74168	504.16095	668.76050	-92.35283	608.25763	-21.60221	1462.25098	-684.17377	
23	0.220	-814.63507	128.31482	-611.92316	755.80872	125.62212	-588.81299	-746.03461	-73.74442	504.17944	668.66467	-92.39745	608.29706	-21.62605	1462.23486	-684.17511	
24	0.230	-814.63837	128.33163	-611.91864	755.80255	125.62540	-588.81128	-745.97711	-73.78394	504.20712	668.70831	-92.36298	608.29175	-21.62297	1462.24548	-684.17249	
25	0.240	-814.63806	128.34695	-611.91840	755.81458	125.61176	-588.79663	-745.99121	-73.78583	504.19055	668.63092	-92.42315	608.29572	-21.66168	1462.22119	-684.20044	
26	0.250	-814.64996	128.33083	-611.88684	755.78113	125.59415	-588.82086	-746.01581	-73.79489	504.20453	668.65997	-92.37428	608.31519	-21.63077	1462.24487	-684.22418	
27	0.260	-814.68427	128.35727	-611.88391	755.79700	125.60635	-588.78656	-746.02704	-73.74285	504.17963	668.69220	-92.32559	608.33685	-21.65065	1462.26538	-684.23010	
28	0.270	-814.66968	128.36130	-611.90918	755.82227	125.61459	-588.82654	-746.00568	-73.73284	504.18112	668.70117	-92.35755	608.31183	-21.63429	1462.26575	-684.24341	
29	0.280	-814.67401	128.36240	-611.89105	755.80396	125.60664	-588.83820	-746.03546	-73.69942	504.19113	668.65381	-92.39079	608.29596	-21.60295	1462.26501	-684.22717	
30	0.290	-814.66052	128.33791	-611.92108	755.82147	125.62895	-588.83124	-746.02795	-73.69305	504.16675	668.69952	-92.36687	608.27521	-21.62029	1462.25305	-684.20026	
31	0.300	-814.66150	128.35135	-611.92358	755.79285	125.62642	-588.82233	-746.02332	-73.72340	504.17410	668.69446	-92.38162	608.29187	-21.58193	1462.25806	-684.19586	
32	0.310	-814.64410	128.32884	-611.89539	755.83197	125.63425	-588.78534	-746.00800	-73.72217	504.18359	668.65051	-92.36289	608.32288	-21.64203	1462.23792	-684.17889	
33	0.320	-814.32330	128.03174	-611.35687	755.79352	125.62101	-588.83893	-746.01025	-73.74236	504.18594	668.71234	-92.32623	608.32788	-21.59269	1462.24939	-684.19135	
34	0.330	-814.65411	128.34460	-611.89441	755.83112	125.60683	-588.81628	-746.00031	-73.74303	504.17026	668.67352	-92.40011	608.26648	-21.62372	1462.28088	-684.17957	
35	0.340	-814.69714	128.39313	-611.90015	755.82330	125.62404	-588.80695	-746.04022	-73.73274	504.18329	668.68097	-92.39902	608.28271	-21.62606	1462.28003	-684.18726	
36	0.350	-814.68481	128.37334	-611.89294	755.80017	125.62911	-588.80353	-746.01611	-73.73843	504.14233	668.70410	-92.37840	608.30420	-21.58274	1462.25391	-684.17780	
37	0.360	-814.46429	128.18051	-611.38239	755.81281	125.60195	-588.81488	-746.02936	-73.72335	504.15079	668.72797	-92.36938	608.27411	-21.58278	1462.27307	-684.18628	
38	0.370	-814.43427	128.13647	-611.44641	755.80334	125.60971	-588.84882	-745.98785	-73.78473	504.21292	668.68536	-92.36626	608.30884	-21.60754	1462.27100	-684.20490	
39	0.380	-814.62714	128.31912	-611.91345	755.83466	125.61411	-588.78387	-746.01093	-73.75140	504.19928	668.62573	-92.45367	608.28644	-21.61257	1462.27209	-684.23132	
40	0.390	-814.63702	128.33241	-611.87811	755.82239	125.59309	-588.82758	-746.00348	-73.79205	504.22610	668.65979	-92.37991	608.32373	-21.61385	1462.21802	-684.16553	
41	0.400	-814.63379	128.31897	-611.88751	755.79608	125.60442	-588.83734	-746.02277	-73.71362	504.19046	668.76019	-92.36118	608.29431	-21.56571	1462.22717	-684.21722	
42	0.410	-814.63776	128.35149	-611.89941	755.79706	125.59396	-588.83051	-746.01715	-73.72509	504.20325	668.67047	-92.35564	608.32031	-21.55731	1462.20667	-684.18933	
43	0.420	-814.66931	128.35777	-611.91589	755.82599	125.60812	-588.81738	-746.01544	-73.73269	504.19083	668.83258	-92.46260	608.35706	-21.65608	1462.27356	-684.18201	
44	0.430	-814.70142	128.41826	-611.90668	755.79358	125.60537	-588.81372	-746.02832	-73.69332	504.22513	668.62170	-92.38417	608.31421	-21.60032	1462.26160	-684.17841	
45	0.440	-814.69189	128.39366	-611.88806	755.78430	125.60057	-588.82831	-746.02478	-73.72141	504.17264	668.68835	-92.39944	608.27667	-21.60006	1462.27576	-684.17798	
46	0.450	-814.68182	128.37112	-611.91431	755.79456	125.62592	-588.81042	-746.02228	-73.70238	504.17868	668.64960	-92.40649	608.28461	-21.55285	1462.26746	-684.19226	
47	0.460	-814.63818	128.31964	-611.89270	755.84357	125.63904	-588.81213	-746.02679	-73.72142	504.19556	668.70050	-92.36245	608.30652	-21.55546	1462.27991	-684.21332	
48	0.470	-814.65155	128.35826	-611.87238	755.80634	125.61009	-588.79059	-745.99487	-73.72314	504.18451	668.66547	-92.35732	608.34198	-21.57876	1462.24646	-684.18842	
49	0.480	-814.66168	128.32472	-611.91473	755.79907	125.61644	-588.81067	-746.00452	-73.76147	504.21738	668.65326	-92.43729	608.26996	-21.63565	1462.22266	-684.20496	
50	0.490	-814.65283	128.29597	-611.91553	755.79248	125.60642	-588.81445	-746.01794	-73.72762	504.20676	668.69305	-92.36163	608.30560	-21.59578	1462.25586	-684.20331	
51	0.500	-814.68420	128.36714	-611.91052	755.78137	125.59136	-588.84668	-746.01849	-73.70379	504.16534	668.66779	-92.35230	608.31079	-21.59952	1462.28137	-684.20416	
52	0.510	-814.68042	128.36690	-611.87085	755.80493	125.61878	-588.82343	-746.01892	-73.71864	504.15994	668.69421	-92.40128	608.26044	-21.58577	1462.25293	-684.19696	
53	0.520	-814.69562	128.36673	-611.89569	755.79572	125.61642	-588.80536	-746.05206	-73.69176	504.19281	668.65344	-92.42006	608.26642	-21.62029	1462.23767	-684.21191	
54	0.530	-814.64795	128.31256	-611.90540	755.80066	125.59992	-588.81732	-746.01208	-73.77283	504.22186	668.70209	-92.37897	608.31207	-21.64208	1462.25256	-684.21515	
55	0.540	-814.60437	128.29033	-611.89771	755.77863	125.59583	-588.82977	-745.99988	-73.84038	504.26736	668.71954	-92.41402	608.29193	-21.59464	1462.20813	-684.20245	
56	0.550	-814.62030	128.28641	-611.90674	755.79608	125.61225	-588.79883	-745.99609	-73.81360	504.25119	668.68225	-92.40046	608.32141	-21.63431	1462.19421	-684.22192	
57	0.560	-814.65637	128.35498	-611.91803	755.79272	125.57953	-588.80951	-746.02069	-73.77556	504.22031	668.62701	-92.43472	608.29443	-21.60364	1462.24329	-684.19171	
58	0.570	-814.69385	128.38045	-611.92194	755.77045	125.59343	-588.83490	-746.03729	-73.71661	504.22791	668.66785	-92.39236	608.29364	-21.61236	1462.28064	-684.19611	
59	0.580	-814.63715	128.30960	-611.88428	755.79224	125.62408	-588.81030	-746.03107	-73.71858	504.17221	668.70868	-92.33424	608.31464	-21.59578	1462.25159	-684.16901	
60	0.590	-814.67981	128.36812	-611.85474	755.80566	125.60590	-588.79974	-746.02588	-73.75034	504.19644	668.65582	-92.32835	608.34784	-21.60979	1462.26978	-684.20325	
